<?xml version="1.0" encoding="utf-8"?>
<svg viewBox="2799.191 1490.169 1807.196 758.065" width="1807.196" height="758.065" xmlns="http://www.w3.org/2000/svg">
    <defs>
        <style type="text/css">

            .fil9 {fill:#003398}
            .fil1 {fill:#4154FF}
            .fil8 {fill:#FFC727}
            .fil2 {fill:white}
            .fil5 {fill:#009933;fill-rule:nonzero}
            .fil6 {fill:#0F5FFF;fill-rule:nonzero}
            .fil0 {fill:#B3B3B3;fill-rule:nonzero}
            .fil4 {fill:red;fill-rule:nonzero}
            .fil3 {fill:#FFCC00;fill-rule:nonzero}
            .fil7 {fill:white;fill-rule:nonzero}

        </style>
    </defs>
    <g>
        <g id="Layer_x0020_1" style="" transform="matrix(0.14823, 0, 0, 0.14823, 2384.266602, 1269.281372)">
            <g id="_2737615786864">
                <path class="fil8"
                      d="M7095.45 3926.77l105.37 9.43 -65.39 371.35 -110.48 -29.37c-26.49,90.88 -58.93,179.25 -96.91,264.69l111.62 46.49 -174.03 334.49 -109.05 -69.17c-51.82,77.89 -108.66,152.11 -170.06,222.31l103.04 86.83 -266.55 266.68 -90.68 -107.62c-71.77,58.73 -147.44,112.82 -226.59,161.86l77.17 121.67 -334.4 174.19 -56.64 -135.94c-85.24,34.78 -173.18,64.09 -263.49,87.59l38.25 143.91 -371.31 65.58 -13.41 -149.86c-45.1,3.92 -90.62,6.43 -136.47,7.46l0.01 804.94 -94.12 -0.22c0,-85.53 -122.42,-348.09 -257.11,-524.03 -128.36,-167.65 -342.63,-285.55 -452.1,-325.83 -302.32,-111.25 -573.91,-287.25 -797.61,-510.97 -398.28,-398.3 -645.25,-948.03 -645.32,-1553.56l0 -0.27 0 -0.13c0.04,-605.62 247.04,-1155.45 645.39,-1553.78 398.3,-398.27 948.03,-645.24 1553.56,-645.32l0.27 0 0.13 0c605.62,0.04 1155.45,247.05 1553.78,645.4 398.27,398.29 645.24,948.02 645.31,1553.55l0 0.28 0 0.13c0,46.89 -1.55,93.4 -4.47,139.56l-88.97 0c-2.18,32.77 -5.07,65.33 -8.74,97.68zm-2144.12 2425.93l0 -732c-808.91,-22.19 -1488.27,-594.76 -1696.12,-1365.67 -111.05,-35.78 -207.99,-82.67 -280.93,-132.95 84.97,396.93 284.24,752.42 561.6,1029.78 201.46,201.48 444.14,361.82 713.97,467.02 89.19,34.79 184.74,86.41 263.04,134.7 231.74,142.93 362.37,335.88 438.44,599.12zm-1556.59 -2060.54c214.85,681.3 829.25,1180.21 1556.59,1201.61l0 -575.87c0,-33.69 7.73,-65.89 17.53,-96.5 39.13,-121.97 150.18,-210.3 285.9,-267.43 130.39,-54.87 307.27,-81.58 439.77,-81.58 34.27,0 67.26,1.76 98.33,5.34 -30.7,-31.11 -74.83,-56.92 -132.22,-56.92l-118.12 0 -57.35 0 12.8 -56c4.58,-20.09 11.16,-55.56 -2.58,-81.99l0 -0.17c-13.85,-26.67 -51.86,-49 -141.51,-49l-402.55 0 0 -404.56 -2018.12 0c187.47,272.87 545.79,430.35 851.49,489.21 -161.9,4.29 -236.25,2.42 -389.96,-26.14zm1650.75 -270.71c12.73,-12.76 26.49,-25.13 41.27,-37.18 76.15,-62.05 179.7,-115.3 284.94,-155.18l-326.21 0 0 192.36zm609.93 -192.36c-154.41,19.47 -385.79,100.41 -522.57,211.85 -29.25,23.85 -53.82,48.93 -71.72,74.76 -6.02,8.7 -11.23,17.44 -15.64,26.25l0 0.11 285.62 0c132.33,0 194.74,44.9 222.66,98.59l0.07 -0.04c15.57,29.97 19.31,61.19 18.34,88.61l65.69 0c115.16,0 193.49,68.03 235.41,131.3 8.09,12.24 14.94,24.48 20.42,36.04 5.75,12.14 10.08,23.55 12.93,33.63l0.11 0.38 23.45 82.11 -81.41 -26.11c-46.65,-14.94 -108.26,-22.58 -177.02,-22.58 -122.08,0 -263.2,24.25 -381.57,74.06 -113.01,47.57 -204.44,117.89 -234.39,211.26 -6.77,21.16 -10.42,44 -10.42,68.59l0.11 553.94c472.43,-12.35 900.11,-209.94 1212.78,-522.55 292.05,-292.05 483.75,-684.62 517.75,-1120.2l-1120.6 0zm-71.21 -1824.63c175.62,221.05 311.1,474.59 396.65,745.26 111.1,-31.85 219.6,-68.89 324.38,-110.8 77.72,-31.09 153.58,-64.92 227.06,-101.29 45.61,-22.56 90.47,-46.29 134.51,-71.02 -62.56,-85.07 -131.36,-165.17 -205.86,-239.67 -146.26,-146.27 -314.24,-270.89 -498.54,-368.46 -27.77,13.98 -56.05,27.46 -84.92,40.36 -44.94,20.07 -90.49,38.52 -136.42,55.26 -51.51,18.78 -103.92,35.54 -156.86,50.36zm422.46 832.9c51.31,188.26 78.62,383.78 78.62,581.6 0,84.49 -4.87,183.77 -14.52,272.82l997.59 0c0,-0.75 0.02,-1.5 0.02,-2.25l0 -0.13 0 -0.28c-0.04,-423.79 -128.67,-818.57 -348.78,-1147.29 -47.61,26.91 -96.59,52.85 -146.86,77.72 -75.45,37.34 -153.47,72.14 -233.5,104.14 -107.49,43 -218.69,80.95 -332.57,113.67zm-27.88 854.42c9.91,-87.53 14.91,-187.58 14.91,-272.82 0,-189.55 -26.19,-376.97 -75.38,-557.39 -280.97,73.06 -576.59,114.04 -872.83,117.97l0 712.24 933.3 0zm-86.35 -917.93c-86.45,-271.83 -225.48,-525.59 -406.17,-744.38 -145.05,33.46 -293.46,52.18 -440.78,55.48l0 802.98c287.67,-3.92 574.43,-43.52 846.95,-114.08zm-1379.26 -747.54c-182.98,220.7 -323.47,477.16 -410.2,751.95 272.43,68.59 560.02,106.01 848.35,109.67l0 -803.07c-147.53,-3.59 -294.66,-24 -438.15,-58.55zm-435.96 839.88c-48.36,179.01 -74.11,364.85 -74.11,552.77 0,85.24 5.01,185.31 14.92,272.84l933.3 0 0 -712.27c-297.03,-3.7 -593.42,-42.36 -874.11,-113.34zm-151.18 825.61c-9.65,-89.07 -14.53,-188.35 -14.53,-272.84 0,-195.97 26.82,-389.74 77.22,-576.36 -23.14,-6.51 -46.09,-13.14 -68.83,-20.02 -230.79,-69.94 -448.89,-162.69 -645.44,-276.59 -218.43,327.95 -346,721.23 -346.02,1143.28l0 0.13 0 0.27c0,0.72 0.02,1.41 0.02,2.13l997.58 0zm88.35 -937.11c85.97,-274.17 223.17,-530.89 401.43,-754.22 -5.55,-1.6 -11.18,-3.21 -16.82,-4.87 -124.27,-36.9 -244.88,-84.1 -359.61,-139.76 -186.2,97.95 -355.88,223.47 -503.44,371.02 -75.76,75.77 -145.67,157.28 -209.05,243.95 188.19,108.26 397.46,196.83 619.49,264.09 22.61,6.85 45.28,13.41 68,19.79zm130.61 -950.61c90.6,40.52 184.19,75.49 279.76,103.84 24.62,7.31 50.9,14.55 78.64,21.67 161.55,41.46 328.15,64.3 494.61,64.32l0.4 0c240.19,0 484.48,-42.94 711.52,-125.68 44.39,-16.18 87.93,-33.8 130.34,-52.74 6.1,-2.73 12.14,-5.53 18.22,-8.34 -262.15,-120.47 -553.43,-187.7 -859.95,-187.72l-0.13 0 -0.27 0c-303.85,0.04 -592.76,66.11 -853.14,184.65z"/>
                <path class="fil9"
                      d="M4145 1804.08c90.6,40.52 184.19,75.49 279.76,103.84 24.62,7.31 50.9,14.55 78.64,21.67 161.55,41.46 328.15,64.3 494.61,64.32l0.4 0c240.19,0 484.48,-42.94 711.52,-125.68 44.39,-16.18 87.93,-33.8 130.34,-52.74 6.1,-2.73 12.14,-5.53 18.22,-8.34 -262.15,-120.47 -553.43,-187.7 -859.95,-187.72l-0.13 0 -0.27 0c-303.85,0.04 -592.76,66.11 -853.14,184.65zm1233.99 2491.69c24.37,0 44.26,19.91 44.26,44.28 0,24.36 -19.89,44.25 -44.26,44.25 -24.36,0 -44.27,-19.89 -44.27,-44.25 0,-24.37 19.91,-44.28 44.27,-44.28zm-427.66 1090.34l0 -468.21c0,-33.69 7.73,-65.89 17.53,-96.5 39.13,-121.97 150.18,-210.3 285.9,-267.43 130.39,-54.87 307.27,-81.58 439.77,-81.58 34.27,0 67.26,1.76 98.33,5.34 -30.7,-31.11 -74.83,-56.92 -132.22,-56.92l-118.12 0 -57.35 0 12.8 -56c4.58,-20.09 11.16,-55.56 -2.58,-81.99l0 -0.17c-13.85,-26.67 -51.86,-49 -141.51,-49l-402.55 0 0 -404.56 -2018.12 0c187.47,272.87 545.79,430.35 851.49,489.21 -115.21,3.06 -186.15,2.91 -272.82,-7.67 214.84,611.55 777.01,1054.73 1439.45,1075.48zm0 966.59l0 -732c-808.91,-22.19 -1488.27,-594.76 -1696.12,-1365.67 -111.05,-35.78 -207.99,-82.67 -280.93,-132.95 84.97,396.93 284.24,752.42 561.6,1029.78 201.46,201.48 444.14,361.82 713.97,467.02 89.19,34.79 184.74,86.41 263.04,134.7 231.74,142.93 362.37,335.88 438.44,599.12zm704.09 -2523.61c-154.41,19.47 -385.79,100.41 -522.57,211.85 -29.25,23.85 -53.82,48.93 -71.72,74.76 -6.02,8.7 -11.23,17.44 -15.64,26.25l0 0.11 285.62 0c132.33,0 194.74,44.9 222.66,98.59l0.07 -0.04c15.57,29.97 19.31,61.19 18.34,88.61l65.69 0c115.16,0 193.49,68.03 235.41,131.3 8.09,12.24 14.94,24.48 20.42,36.04 5.75,12.14 10.08,23.55 12.93,33.63l0.11 0.38 23.45 82.11 -81.41 -26.11c-46.65,-14.94 -108.26,-22.58 -177.02,-22.58 -122.08,0 -263.2,24.25 -381.57,74.06 -113.01,47.57 -204.44,117.89 -234.39,211.26 -6.77,21.16 -10.42,44 -10.42,68.59l0.11 553.94c472.43,-12.35 900.11,-209.94 1212.78,-522.55 292.05,-292.05 483.75,-684.62 517.75,-1120.2l-1120.6 0zm-71.21 -1824.63c175.62,221.05 311.1,474.59 396.65,745.26 111.1,-31.85 219.6,-68.89 324.38,-110.8 77.72,-31.09 153.58,-64.92 227.06,-101.29 45.61,-22.56 90.47,-46.29 134.51,-71.02 -62.56,-85.07 -131.36,-165.17 -205.86,-239.67 -146.26,-146.27 -314.24,-270.89 -498.54,-368.46 -27.77,13.98 -56.05,27.46 -84.92,40.36 -44.94,20.07 -90.49,38.52 -136.42,55.26 -51.51,18.78 -103.92,35.54 -156.86,50.36zm422.46 832.9c51.31,188.26 78.62,383.78 78.62,581.6 0,84.49 -4.87,183.77 -14.52,272.82l997.59 0c0,-0.75 0.02,-1.5 0.02,-2.25l0 -0.13 0 -0.28c-0.04,-423.79 -128.67,-818.57 -348.78,-1147.29 -47.61,26.91 -96.59,52.85 -146.86,77.72 -75.45,37.34 -153.47,72.14 -233.5,104.14 -107.49,43 -218.69,80.95 -332.57,113.67zm-27.88 854.42c9.91,-87.53 14.91,-187.58 14.91,-272.82 0,-189.55 -26.19,-376.97 -75.38,-557.39 -280.97,73.06 -576.59,114.04 -872.83,117.97l0 712.24 933.3 0zm-86.35 -917.93c-86.45,-271.83 -225.48,-525.59 -406.17,-744.38 -145.05,33.46 -293.46,52.18 -440.78,55.48l0 802.98c287.67,-3.92 574.43,-43.52 846.95,-114.08zm-1379.26 -747.54c-182.98,220.7 -323.47,477.16 -410.2,751.95 272.43,68.59 560.02,106.01 848.35,109.67l0 -803.07c-147.53,-3.59 -294.66,-24 -438.15,-58.55zm-435.96 839.88c-48.36,179.01 -74.11,364.85 -74.11,552.77 0,85.24 5.01,185.31 14.92,272.84l933.3 0 0 -712.27c-297.03,-3.7 -593.42,-42.36 -874.11,-113.34zm-151.18 825.61c-9.65,-89.07 -14.53,-188.35 -14.53,-272.84 0,-195.97 26.82,-389.74 77.22,-576.36 -23.14,-6.51 -46.09,-13.14 -68.83,-20.02 -230.79,-69.94 -448.89,-162.69 -645.44,-276.59 -218.43,327.95 -346,721.23 -346.02,1143.28l0 0.13 0 0.27c0,0.72 0.02,1.41 0.02,2.13l997.58 0zm88.35 -937.11c85.97,-274.17 223.17,-530.89 401.43,-754.22 -5.55,-1.6 -11.18,-3.21 -16.82,-4.87 -124.27,-36.9 -244.88,-84.1 -359.61,-139.76 -186.2,97.95 -355.88,223.47 -503.44,371.02 -75.76,75.77 -145.67,157.28 -209.05,243.95 188.19,108.26 397.46,196.83 619.49,264.09 22.61,6.85 45.28,13.41 68,19.79z"/>
                <circle class="fil8" cx="5379.29" cy="4340.28" r="46.2"/>
            </g>
        </g>

        <g transform="translate(-600,0)">
            <text
                style="fill: rgb(255, 255, 255); font-family: Arial, sans-serif; font-size: 124.2px; font-weight: 700; white-space: pre;"
                transform="matrix(1.432398, 0, 0, 1.449942, -1517.440552, -671.123718)"

                x="3523.04"
                y="1708.72"
            >
                <!--            DISHUB TPE-->
                Terminal Senin
            </text>
            <text
                style="fill: rgb(255, 255, 255); font-family: Arial, sans-serif; font-size: 123.2px; font-style: italic; white-space: pre;"
                x="3546.7" y="1965.95">
                <!--            By Rapik version 0.1-->
                By PT. Aluna Jaya
            </text>
        </g>



    </g>
</svg>
